<svg width="512" height="512" viewBox="0 0 512 512" xmlns="http://www.w3.org/2000/svg">
  <rect width="512" height="512" fill="#0EA5E9" rx="128"/>
  <g transform="translate(256,256)">
    <path d="M -50,-20 Q -80,-20 -90,-10 Q -95,0 -80,10 L -30,30 Q -20,35 -10,30 L 40,10 Q 55,0 50,-10 Q 40,-20 10,-20 L -50,-20 Z" fill="#ffffff"/>
    <circle cx="-40" cy="-10" r="8" fill="#000000"/>
    <path d="M -30,30 Q -25,40 -20,35 Q -15,30 -20,25 Z" fill="#0EA5E9"/>
    <path d="M 40,10 L 60,0 L 65,10 L 55,15 Z" fill="#ffffff" opacity="0.8"/>
    <path d="M -80,10 L -100,5 L -105,15 L -90,18 Z" fill="#ffffff" opacity="0.8"/>
  </g>
  <text x="256" y="420" font-family="Arial, sans-serif" font-size="48" font-weight="bold" fill="#ffffff" text-anchor="middle">FISH HEALTH</text>
</svg>
